<?xml version="1.0" encoding="UTF-8" standalone="no"?>
<!DOCTYPE svg PUBLIC "-//W3C//DTD SVG 1.1//EN" "http://www.w3.org/Graphics/SVG/1.1/DTD/svg11.dtd">
<svg width="100%" height="100%" viewBox="0 0 1022 779" version="1.1" xmlns="http://www.w3.org/2000/svg" xmlns:xlink="http://www.w3.org/1999/xlink" xml:space="preserve" xmlns:serif="http://www.serif.com/" style="fill-rule:evenodd;clip-rule:evenodd;stroke-linecap:round;">
    <g transform="matrix(1,0,0,1,-1217.98,0)">
        <g id="sauvons-halloween-renversé" serif:id="sauvons halloween renversé" transform="matrix(1.00597,0,0,0.794814,1127.4,-79.175)">
            <rect x="90.04" y="99.614" width="1015.16" height="979.687" style="fill:none;"/>
            <g transform="matrix(1.12673,0,0,1.42606,-130.472,-421.431)">
                <g transform="matrix(3.71785,0,0,3.71785,-2337.54,-3674.91)">
                    <g transform="matrix(53.7945,0,0,53.7945,691.059,1261.02)">
                        <path d="M-0.04,0.025C-0.026,0.017 -0.013,0.01 -0.003,0.003C0.007,-0.003 0.016,-0.012 0.024,-0.023C0.031,-0.034 0.037,-0.05 0.042,-0.07C0.047,-0.09 0.05,-0.118 0.054,-0.153C0.061,-0.224 0.066,-0.291 0.07,-0.354C0.073,-0.417 0.073,-0.481 0.069,-0.546C0.067,-0.573 0.063,-0.596 0.057,-0.613C0.05,-0.631 0.043,-0.645 0.035,-0.655C0.027,-0.665 0.019,-0.672 0.011,-0.677C0.003,-0.682 -0.003,-0.686 -0.008,-0.689L-0.006,-0.71C0.005,-0.707 0.018,-0.704 0.034,-0.701C0.05,-0.697 0.068,-0.694 0.088,-0.692C0.108,-0.69 0.13,-0.689 0.154,-0.689C0.178,-0.69 0.204,-0.693 0.23,-0.698L0.231,-0.681C0.228,-0.679 0.221,-0.674 0.213,-0.665C0.204,-0.657 0.196,-0.645 0.187,-0.629C0.178,-0.613 0.17,-0.593 0.163,-0.569C0.155,-0.544 0.15,-0.515 0.147,-0.481C0.145,-0.46 0.143,-0.438 0.142,-0.417C0.141,-0.395 0.14,-0.373 0.14,-0.352C0.156,-0.351 0.175,-0.35 0.196,-0.35C0.218,-0.35 0.241,-0.35 0.265,-0.351C0.289,-0.352 0.313,-0.354 0.338,-0.356C0.363,-0.359 0.388,-0.363 0.411,-0.369C0.41,-0.41 0.41,-0.448 0.409,-0.484C0.409,-0.519 0.408,-0.547 0.407,-0.565C0.407,-0.582 0.404,-0.599 0.399,-0.617C0.395,-0.634 0.389,-0.65 0.382,-0.665C0.375,-0.68 0.366,-0.694 0.355,-0.706C0.345,-0.718 0.334,-0.727 0.321,-0.732L0.323,-0.751C0.333,-0.748 0.349,-0.744 0.371,-0.741C0.392,-0.737 0.417,-0.734 0.443,-0.732C0.469,-0.73 0.496,-0.729 0.523,-0.729C0.55,-0.73 0.574,-0.733 0.596,-0.739L0.594,-0.717C0.583,-0.712 0.573,-0.707 0.562,-0.701C0.55,-0.694 0.54,-0.686 0.531,-0.675C0.522,-0.665 0.514,-0.651 0.507,-0.635C0.5,-0.618 0.496,-0.598 0.494,-0.573C0.492,-0.548 0.49,-0.516 0.488,-0.477C0.486,-0.438 0.485,-0.396 0.485,-0.353C0.485,-0.31 0.486,-0.267 0.488,-0.225C0.491,-0.182 0.496,-0.145 0.503,-0.113C0.507,-0.092 0.513,-0.075 0.519,-0.062C0.524,-0.049 0.531,-0.038 0.539,-0.029C0.547,-0.02 0.556,-0.013 0.565,-0.007C0.575,-0.002 0.586,0.003 0.598,0.008L0.589,0.022C0.571,0.017 0.551,0.012 0.529,0.008C0.507,0.004 0.485,0.001 0.463,-0C0.441,-0.002 0.42,-0.002 0.399,-0.001C0.379,-0 0.362,0.001 0.347,0.004L0.344,-0.02C0.355,-0.023 0.366,-0.028 0.375,-0.032C0.383,-0.037 0.391,-0.044 0.396,-0.053C0.402,-0.063 0.407,-0.076 0.409,-0.093C0.412,-0.11 0.413,-0.133 0.413,-0.162C0.412,-0.18 0.412,-0.201 0.412,-0.223L0.412,-0.293C0.393,-0.295 0.372,-0.296 0.349,-0.297C0.325,-0.298 0.301,-0.299 0.277,-0.299C0.252,-0.299 0.228,-0.298 0.205,-0.296C0.181,-0.295 0.159,-0.292 0.14,-0.289C0.14,-0.253 0.142,-0.218 0.144,-0.186C0.146,-0.153 0.149,-0.123 0.153,-0.096C0.156,-0.077 0.159,-0.062 0.164,-0.05C0.168,-0.039 0.173,-0.03 0.178,-0.023C0.184,-0.016 0.19,-0.011 0.198,-0.006C0.205,-0.002 0.214,0.002 0.224,0.007L0.218,0.026C0.204,0.023 0.186,0.021 0.164,0.02C0.142,0.019 0.119,0.019 0.095,0.02C0.071,0.021 0.048,0.023 0.025,0.026C0.003,0.03 -0.015,0.034 -0.028,0.04L-0.04,0.025Z" style="fill:white;fill-rule:nonzero;"/>
                    </g>
                    <g transform="matrix(50,0,0,50,722.947,1258.77)">
                        <path d="M0.495,-0.036C0.493,-0.028 0.49,-0.018 0.485,-0.008C0.481,0.002 0.474,0.011 0.466,0.019C0.457,0.027 0.447,0.033 0.435,0.038C0.423,0.042 0.409,0.042 0.393,0.038C0.376,0.034 0.363,0.025 0.354,0.011C0.345,-0.004 0.338,-0.022 0.334,-0.044C0.328,-0.035 0.321,-0.025 0.312,-0.015C0.303,-0.005 0.293,0.004 0.281,0.012C0.269,0.02 0.255,0.027 0.24,0.032C0.224,0.037 0.208,0.038 0.189,0.037C0.165,0.035 0.143,0.028 0.124,0.017C0.104,0.006 0.088,-0.009 0.075,-0.027C0.062,-0.045 0.053,-0.065 0.046,-0.088C0.04,-0.111 0.038,-0.134 0.041,-0.159C0.044,-0.184 0.05,-0.205 0.061,-0.223C0.072,-0.24 0.085,-0.254 0.102,-0.265C0.118,-0.276 0.136,-0.283 0.157,-0.287C0.178,-0.291 0.2,-0.292 0.222,-0.29C0.251,-0.287 0.275,-0.278 0.295,-0.264C0.314,-0.25 0.329,-0.235 0.34,-0.218C0.343,-0.248 0.344,-0.28 0.343,-0.314C0.341,-0.348 0.336,-0.379 0.327,-0.408C0.318,-0.436 0.304,-0.459 0.285,-0.478C0.266,-0.497 0.241,-0.506 0.208,-0.505C0.185,-0.505 0.167,-0.501 0.152,-0.493C0.137,-0.485 0.125,-0.475 0.117,-0.464C0.108,-0.453 0.102,-0.442 0.099,-0.43C0.095,-0.419 0.094,-0.41 0.094,-0.403C0.094,-0.397 0.096,-0.389 0.1,-0.381C0.104,-0.373 0.109,-0.366 0.116,-0.359C0.123,-0.352 0.132,-0.347 0.142,-0.343C0.151,-0.339 0.162,-0.338 0.175,-0.34C0.183,-0.341 0.191,-0.344 0.197,-0.349C0.204,-0.353 0.209,-0.358 0.213,-0.364C0.217,-0.37 0.22,-0.376 0.221,-0.383C0.223,-0.389 0.224,-0.396 0.224,-0.401C0.224,-0.408 0.222,-0.414 0.218,-0.418C0.214,-0.423 0.209,-0.427 0.204,-0.43C0.199,-0.432 0.193,-0.433 0.187,-0.432C0.18,-0.431 0.174,-0.428 0.169,-0.423C0.175,-0.424 0.181,-0.422 0.187,-0.419C0.192,-0.417 0.195,-0.41 0.195,-0.401C0.195,-0.394 0.192,-0.389 0.187,-0.385C0.181,-0.382 0.174,-0.38 0.167,-0.381C0.16,-0.382 0.153,-0.385 0.147,-0.39C0.142,-0.396 0.139,-0.404 0.139,-0.416C0.139,-0.427 0.143,-0.437 0.153,-0.444C0.162,-0.452 0.173,-0.456 0.186,-0.456C0.201,-0.456 0.214,-0.45 0.227,-0.438C0.24,-0.427 0.246,-0.41 0.246,-0.39C0.246,-0.382 0.244,-0.375 0.241,-0.367C0.237,-0.359 0.232,-0.351 0.225,-0.344C0.217,-0.337 0.208,-0.331 0.196,-0.326C0.185,-0.321 0.171,-0.318 0.155,-0.318C0.14,-0.318 0.126,-0.321 0.113,-0.328C0.101,-0.334 0.09,-0.342 0.082,-0.351C0.074,-0.361 0.067,-0.371 0.063,-0.382C0.059,-0.394 0.057,-0.405 0.057,-0.415C0.057,-0.425 0.06,-0.439 0.066,-0.455C0.073,-0.471 0.083,-0.486 0.097,-0.5C0.111,-0.514 0.129,-0.527 0.15,-0.537C0.171,-0.548 0.196,-0.553 0.226,-0.553C0.304,-0.553 0.359,-0.525 0.389,-0.47C0.419,-0.415 0.424,-0.333 0.403,-0.225C0.396,-0.181 0.391,-0.146 0.391,-0.118C0.39,-0.091 0.392,-0.069 0.396,-0.053C0.399,-0.036 0.405,-0.025 0.413,-0.019C0.42,-0.012 0.428,-0.008 0.437,-0.007C0.444,-0.006 0.451,-0.006 0.457,-0.009C0.462,-0.01 0.467,-0.013 0.472,-0.018C0.477,-0.023 0.48,-0.031 0.482,-0.041L0.495,-0.036ZM0.33,-0.086C0.329,-0.109 0.33,-0.134 0.333,-0.16C0.328,-0.18 0.317,-0.199 0.301,-0.216C0.285,-0.234 0.267,-0.244 0.247,-0.247C0.232,-0.25 0.217,-0.25 0.201,-0.247C0.185,-0.244 0.171,-0.238 0.158,-0.229C0.146,-0.22 0.136,-0.208 0.129,-0.192C0.122,-0.177 0.119,-0.158 0.121,-0.135C0.124,-0.1 0.134,-0.073 0.151,-0.055C0.167,-0.036 0.192,-0.028 0.225,-0.03C0.249,-0.032 0.27,-0.038 0.288,-0.049C0.305,-0.061 0.319,-0.073 0.33,-0.086Z" style="fill:white;fill-rule:nonzero;"/>
                    </g>
                    <g transform="matrix(50,0,0,50,746.97,1258.77)">
                        <path d="M0.256,-0.025C0.238,-0.028 0.221,-0.03 0.205,-0.03C0.189,-0.031 0.175,-0.032 0.163,-0.032L0.123,-0.032C0.109,-0.032 0.095,-0.031 0.081,-0.03C0.069,-0.03 0.057,-0.029 0.044,-0.028C0.032,-0.027 0.021,-0.026 0.011,-0.024L0.005,-0.037C0.02,-0.042 0.032,-0.049 0.042,-0.057C0.052,-0.065 0.059,-0.074 0.064,-0.082C0.071,-0.092 0.075,-0.102 0.077,-0.112C0.082,-0.134 0.085,-0.161 0.088,-0.193C0.091,-0.224 0.093,-0.259 0.094,-0.295C0.095,-0.332 0.095,-0.37 0.095,-0.409C0.094,-0.447 0.093,-0.485 0.091,-0.521C0.089,-0.558 0.086,-0.592 0.083,-0.623C0.079,-0.653 0.075,-0.679 0.07,-0.7C0.066,-0.713 0.061,-0.726 0.054,-0.737C0.048,-0.747 0.04,-0.756 0.03,-0.765C0.02,-0.774 0.007,-0.78 -0.009,-0.782L-0.01,-0.797C0.003,-0.796 0.014,-0.795 0.025,-0.794C0.036,-0.794 0.046,-0.794 0.055,-0.794L0.081,-0.794C0.093,-0.795 0.104,-0.796 0.115,-0.797C0.124,-0.798 0.134,-0.799 0.145,-0.801C0.155,-0.802 0.164,-0.804 0.171,-0.807C0.168,-0.718 0.165,-0.644 0.164,-0.585C0.162,-0.527 0.16,-0.479 0.159,-0.443C0.158,-0.402 0.157,-0.369 0.156,-0.345C0.156,-0.321 0.156,-0.295 0.156,-0.267C0.157,-0.239 0.158,-0.212 0.161,-0.186C0.163,-0.16 0.166,-0.137 0.17,-0.117C0.174,-0.097 0.179,-0.083 0.185,-0.074C0.188,-0.068 0.193,-0.063 0.2,-0.059C0.205,-0.055 0.213,-0.051 0.222,-0.048C0.231,-0.045 0.242,-0.042 0.255,-0.041L0.256,-0.025Z" style="fill:white;fill-rule:nonzero;"/>
                    </g>
                    <g transform="matrix(50,0,0,50,759.275,1258.77)">
                        <path d="M0.256,-0.025C0.238,-0.028 0.221,-0.03 0.205,-0.03C0.189,-0.031 0.175,-0.032 0.163,-0.032L0.123,-0.032C0.109,-0.032 0.095,-0.031 0.081,-0.03C0.069,-0.03 0.057,-0.029 0.044,-0.028C0.032,-0.027 0.021,-0.026 0.011,-0.024L0.005,-0.037C0.02,-0.042 0.032,-0.049 0.042,-0.057C0.052,-0.065 0.059,-0.074 0.064,-0.082C0.071,-0.092 0.075,-0.102 0.077,-0.112C0.082,-0.134 0.085,-0.161 0.088,-0.193C0.091,-0.224 0.093,-0.259 0.094,-0.295C0.095,-0.332 0.095,-0.37 0.095,-0.409C0.094,-0.447 0.093,-0.485 0.091,-0.521C0.089,-0.558 0.086,-0.592 0.083,-0.623C0.079,-0.653 0.075,-0.679 0.07,-0.7C0.066,-0.713 0.061,-0.726 0.054,-0.737C0.048,-0.747 0.04,-0.756 0.03,-0.765C0.02,-0.774 0.007,-0.78 -0.009,-0.782L-0.01,-0.797C0.003,-0.796 0.014,-0.795 0.025,-0.794C0.036,-0.794 0.046,-0.794 0.055,-0.794L0.081,-0.794C0.093,-0.795 0.104,-0.796 0.115,-0.797C0.124,-0.798 0.134,-0.799 0.145,-0.801C0.155,-0.802 0.164,-0.804 0.171,-0.807C0.168,-0.718 0.165,-0.644 0.164,-0.585C0.162,-0.527 0.16,-0.479 0.159,-0.443C0.158,-0.402 0.157,-0.369 0.156,-0.345C0.156,-0.321 0.156,-0.295 0.156,-0.267C0.157,-0.239 0.158,-0.212 0.161,-0.186C0.163,-0.16 0.166,-0.137 0.17,-0.117C0.174,-0.097 0.179,-0.083 0.185,-0.074C0.188,-0.068 0.193,-0.063 0.2,-0.059C0.205,-0.055 0.213,-0.051 0.222,-0.048C0.231,-0.045 0.242,-0.042 0.255,-0.041L0.256,-0.025Z" style="fill:white;fill-rule:nonzero;"/>
                    </g>
                    <g transform="matrix(50,0,0,50,771.58,1258.77)">
                        <path d="M0.226,-0.544C0.253,-0.545 0.28,-0.539 0.307,-0.527C0.333,-0.516 0.357,-0.498 0.379,-0.475C0.4,-0.451 0.418,-0.423 0.431,-0.389C0.444,-0.356 0.451,-0.317 0.451,-0.274C0.451,-0.231 0.446,-0.194 0.435,-0.161C0.424,-0.128 0.41,-0.1 0.392,-0.077C0.374,-0.054 0.354,-0.037 0.331,-0.025C0.307,-0.013 0.283,-0.006 0.258,-0.004C0.229,-0.002 0.201,-0.007 0.174,-0.018C0.146,-0.029 0.122,-0.047 0.1,-0.07C0.078,-0.093 0.061,-0.122 0.047,-0.156C0.033,-0.19 0.026,-0.229 0.025,-0.273C0.024,-0.319 0.03,-0.359 0.042,-0.392C0.055,-0.426 0.071,-0.453 0.091,-0.476C0.11,-0.498 0.132,-0.514 0.156,-0.525C0.18,-0.536 0.203,-0.543 0.226,-0.544ZM0.267,-0.068C0.28,-0.07 0.295,-0.076 0.311,-0.086C0.326,-0.096 0.34,-0.112 0.352,-0.132C0.363,-0.153 0.372,-0.178 0.377,-0.208C0.383,-0.239 0.382,-0.274 0.376,-0.315C0.369,-0.356 0.36,-0.39 0.347,-0.415C0.334,-0.44 0.319,-0.46 0.304,-0.474C0.289,-0.488 0.273,-0.497 0.258,-0.501C0.242,-0.506 0.229,-0.507 0.217,-0.507C0.198,-0.506 0.182,-0.499 0.169,-0.488C0.156,-0.476 0.145,-0.462 0.136,-0.444C0.127,-0.426 0.121,-0.406 0.117,-0.383C0.112,-0.36 0.11,-0.336 0.109,-0.312C0.108,-0.28 0.11,-0.249 0.116,-0.218C0.122,-0.187 0.132,-0.159 0.146,-0.134C0.16,-0.11 0.177,-0.092 0.198,-0.081C0.219,-0.07 0.242,-0.066 0.267,-0.068Z" style="fill:white;fill-rule:nonzero;"/>
                    </g>
                    <g transform="matrix(50,0,0,50,795.359,1258.77)">
                        <path d="M0.805,-0.557C0.777,-0.551 0.755,-0.535 0.739,-0.509C0.722,-0.483 0.712,-0.445 0.709,-0.396C0.708,-0.38 0.706,-0.359 0.704,-0.332C0.701,-0.305 0.698,-0.277 0.692,-0.247C0.687,-0.217 0.681,-0.187 0.672,-0.157C0.664,-0.126 0.654,-0.099 0.641,-0.075C0.628,-0.05 0.613,-0.031 0.595,-0.016C0.576,-0.001 0.555,0.007 0.531,0.006C0.505,0.005 0.482,-0.004 0.464,-0.022C0.446,-0.041 0.43,-0.064 0.418,-0.091C0.406,-0.119 0.396,-0.149 0.389,-0.183C0.382,-0.216 0.378,-0.248 0.375,-0.278C0.37,-0.248 0.362,-0.217 0.352,-0.187C0.342,-0.156 0.33,-0.128 0.315,-0.104C0.3,-0.08 0.283,-0.06 0.263,-0.045C0.243,-0.031 0.221,-0.024 0.197,-0.025C0.167,-0.027 0.144,-0.035 0.126,-0.05C0.108,-0.065 0.095,-0.083 0.087,-0.105C0.078,-0.127 0.074,-0.15 0.072,-0.175C0.071,-0.2 0.071,-0.222 0.073,-0.243C0.074,-0.256 0.076,-0.27 0.079,-0.286C0.082,-0.302 0.084,-0.319 0.086,-0.336C0.088,-0.354 0.089,-0.373 0.089,-0.392C0.09,-0.41 0.088,-0.429 0.084,-0.447C0.079,-0.474 0.068,-0.499 0.053,-0.521C0.037,-0.543 0.015,-0.562 -0.015,-0.576L-0.01,-0.594C0.009,-0.592 0.028,-0.591 0.045,-0.59C0.063,-0.589 0.082,-0.589 0.102,-0.59C0.122,-0.591 0.144,-0.593 0.167,-0.596C0.19,-0.599 0.217,-0.604 0.247,-0.611L0.253,-0.593C0.241,-0.588 0.229,-0.581 0.218,-0.573C0.206,-0.565 0.195,-0.554 0.186,-0.539C0.176,-0.523 0.168,-0.503 0.161,-0.479C0.155,-0.454 0.151,-0.422 0.15,-0.382C0.149,-0.342 0.149,-0.304 0.15,-0.268C0.152,-0.232 0.155,-0.2 0.162,-0.172C0.168,-0.145 0.177,-0.123 0.188,-0.106C0.2,-0.09 0.215,-0.083 0.234,-0.084C0.248,-0.085 0.261,-0.095 0.273,-0.114C0.286,-0.133 0.297,-0.157 0.308,-0.187C0.318,-0.216 0.327,-0.248 0.333,-0.282C0.34,-0.317 0.345,-0.35 0.348,-0.381C0.35,-0.412 0.35,-0.44 0.347,-0.463C0.344,-0.487 0.338,-0.503 0.328,-0.51C0.336,-0.51 0.346,-0.51 0.357,-0.51C0.369,-0.511 0.381,-0.511 0.393,-0.512C0.404,-0.513 0.415,-0.514 0.426,-0.515C0.436,-0.516 0.444,-0.518 0.45,-0.52C0.442,-0.51 0.436,-0.496 0.432,-0.477C0.427,-0.457 0.424,-0.435 0.422,-0.409C0.421,-0.384 0.421,-0.357 0.422,-0.328C0.423,-0.299 0.426,-0.271 0.43,-0.244C0.434,-0.221 0.438,-0.198 0.444,-0.177C0.45,-0.156 0.458,-0.137 0.466,-0.121C0.475,-0.105 0.486,-0.092 0.498,-0.082C0.51,-0.072 0.525,-0.067 0.541,-0.067C0.553,-0.067 0.564,-0.074 0.575,-0.087C0.585,-0.101 0.595,-0.12 0.604,-0.145C0.612,-0.169 0.619,-0.199 0.624,-0.234C0.628,-0.269 0.631,-0.308 0.631,-0.351C0.631,-0.394 0.628,-0.428 0.624,-0.454C0.619,-0.479 0.612,-0.5 0.603,-0.515C0.593,-0.53 0.583,-0.541 0.57,-0.547C0.557,-0.554 0.543,-0.561 0.527,-0.566L0.535,-0.586C0.552,-0.581 0.573,-0.577 0.597,-0.574C0.621,-0.57 0.645,-0.568 0.67,-0.566C0.695,-0.565 0.72,-0.565 0.743,-0.566C0.767,-0.567 0.786,-0.57 0.802,-0.574L0.805,-0.557Z" style="fill:white;fill-rule:nonzero;"/>
                    </g>
                    <g transform="matrix(50,0,0,50,833.592,1258.77)">
                        <path d="M0.031,-0.265C0.033,-0.303 0.042,-0.339 0.056,-0.372C0.071,-0.405 0.09,-0.434 0.113,-0.458C0.137,-0.481 0.163,-0.499 0.193,-0.512C0.222,-0.524 0.253,-0.528 0.285,-0.524C0.317,-0.521 0.342,-0.511 0.359,-0.495C0.376,-0.479 0.388,-0.462 0.396,-0.443C0.403,-0.424 0.407,-0.405 0.407,-0.386C0.408,-0.367 0.408,-0.352 0.407,-0.342C0.407,-0.332 0.405,-0.321 0.404,-0.31C0.402,-0.298 0.401,-0.286 0.399,-0.275C0.397,-0.264 0.396,-0.253 0.396,-0.243C0.396,-0.233 0.397,-0.224 0.399,-0.218C0.383,-0.223 0.364,-0.229 0.343,-0.235C0.321,-0.241 0.298,-0.246 0.273,-0.249C0.248,-0.252 0.222,-0.253 0.195,-0.252C0.168,-0.251 0.141,-0.247 0.114,-0.238C0.114,-0.214 0.115,-0.189 0.12,-0.165C0.124,-0.14 0.131,-0.117 0.141,-0.095C0.149,-0.076 0.159,-0.059 0.17,-0.045C0.181,-0.031 0.193,-0.02 0.206,-0.012C0.218,-0.005 0.231,-0.001 0.245,-0C0.258,0.001 0.271,-0.003 0.285,-0.012C0.296,-0.02 0.305,-0.029 0.311,-0.04C0.316,-0.049 0.318,-0.06 0.317,-0.073C0.316,-0.086 0.309,-0.101 0.296,-0.118L0.418,-0.124C0.413,-0.111 0.407,-0.095 0.398,-0.075C0.389,-0.056 0.377,-0.037 0.362,-0.019C0.347,-0 0.329,0.015 0.307,0.027C0.285,0.04 0.258,0.045 0.227,0.044C0.195,0.042 0.167,0.032 0.142,0.014C0.117,-0.004 0.096,-0.027 0.079,-0.056C0.062,-0.084 0.049,-0.117 0.041,-0.153C0.033,-0.189 0.029,-0.226 0.031,-0.265ZM0.273,-0.499C0.255,-0.501 0.237,-0.496 0.22,-0.485C0.203,-0.474 0.187,-0.458 0.173,-0.438C0.159,-0.417 0.147,-0.393 0.138,-0.365C0.128,-0.337 0.121,-0.308 0.117,-0.277C0.154,-0.282 0.189,-0.284 0.221,-0.285C0.253,-0.285 0.282,-0.283 0.31,-0.278C0.317,-0.293 0.323,-0.313 0.329,-0.336C0.335,-0.36 0.338,-0.384 0.337,-0.407C0.336,-0.43 0.331,-0.45 0.322,-0.468C0.312,-0.485 0.296,-0.496 0.273,-0.499Z" style="fill:white;fill-rule:nonzero;"/>
                    </g>
                    <g transform="matrix(50,0,0,50,856.736,1258.77)">
                        <path d="M0.031,-0.265C0.033,-0.303 0.042,-0.339 0.056,-0.372C0.071,-0.405 0.09,-0.434 0.113,-0.458C0.137,-0.481 0.163,-0.499 0.193,-0.512C0.222,-0.524 0.253,-0.528 0.285,-0.524C0.317,-0.521 0.342,-0.511 0.359,-0.495C0.376,-0.479 0.388,-0.462 0.396,-0.443C0.403,-0.424 0.407,-0.405 0.407,-0.386C0.408,-0.367 0.408,-0.352 0.407,-0.342C0.407,-0.332 0.405,-0.321 0.404,-0.31C0.402,-0.298 0.401,-0.286 0.399,-0.275C0.397,-0.264 0.396,-0.253 0.396,-0.243C0.396,-0.233 0.397,-0.224 0.399,-0.218C0.383,-0.223 0.364,-0.229 0.343,-0.235C0.321,-0.241 0.298,-0.246 0.273,-0.249C0.248,-0.252 0.222,-0.253 0.195,-0.252C0.168,-0.251 0.141,-0.247 0.114,-0.238C0.114,-0.214 0.115,-0.189 0.12,-0.165C0.124,-0.14 0.131,-0.117 0.141,-0.095C0.149,-0.076 0.159,-0.059 0.17,-0.045C0.181,-0.031 0.193,-0.02 0.206,-0.012C0.218,-0.005 0.231,-0.001 0.245,-0C0.258,0.001 0.271,-0.003 0.285,-0.012C0.296,-0.02 0.305,-0.029 0.311,-0.04C0.316,-0.049 0.318,-0.06 0.317,-0.073C0.316,-0.086 0.309,-0.101 0.296,-0.118L0.418,-0.124C0.413,-0.111 0.407,-0.095 0.398,-0.075C0.389,-0.056 0.377,-0.037 0.362,-0.019C0.347,-0 0.329,0.015 0.307,0.027C0.285,0.04 0.258,0.045 0.227,0.044C0.195,0.042 0.167,0.032 0.142,0.014C0.117,-0.004 0.096,-0.027 0.079,-0.056C0.062,-0.084 0.049,-0.117 0.041,-0.153C0.033,-0.189 0.029,-0.226 0.031,-0.265ZM0.273,-0.499C0.255,-0.501 0.237,-0.496 0.22,-0.485C0.203,-0.474 0.187,-0.458 0.173,-0.438C0.159,-0.417 0.147,-0.393 0.138,-0.365C0.128,-0.337 0.121,-0.308 0.117,-0.277C0.154,-0.282 0.189,-0.284 0.221,-0.285C0.253,-0.285 0.282,-0.283 0.31,-0.278C0.317,-0.293 0.323,-0.313 0.329,-0.336C0.335,-0.36 0.338,-0.384 0.337,-0.407C0.336,-0.43 0.331,-0.45 0.322,-0.468C0.312,-0.485 0.296,-0.496 0.273,-0.499Z" style="fill:white;fill-rule:nonzero;"/>
                    </g>
                    <g transform="matrix(50,0,0,50,879.881,1258.77)">
                        <path d="M0.149,-0.368C0.157,-0.392 0.168,-0.416 0.183,-0.44C0.197,-0.465 0.213,-0.486 0.232,-0.505C0.25,-0.525 0.271,-0.54 0.292,-0.551C0.314,-0.562 0.337,-0.567 0.36,-0.565C0.382,-0.563 0.4,-0.554 0.414,-0.537C0.428,-0.52 0.439,-0.5 0.447,-0.477C0.456,-0.454 0.461,-0.43 0.464,-0.406C0.467,-0.381 0.468,-0.361 0.468,-0.345C0.466,-0.325 0.462,-0.305 0.456,-0.287C0.449,-0.268 0.441,-0.25 0.433,-0.231C0.425,-0.212 0.417,-0.193 0.41,-0.174C0.403,-0.154 0.399,-0.134 0.397,-0.112C0.396,-0.091 0.399,-0.07 0.405,-0.051C0.411,-0.032 0.42,-0.017 0.432,-0.007C0.443,0.004 0.457,0.008 0.473,0.006C0.489,0.005 0.506,-0.007 0.522,-0.027L0.535,-0.017C0.529,-0.006 0.518,0.005 0.503,0.016C0.488,0.027 0.47,0.032 0.45,0.032C0.437,0.032 0.423,0.029 0.41,0.024C0.396,0.018 0.384,0.01 0.374,-0.002C0.363,-0.014 0.354,-0.03 0.347,-0.049C0.34,-0.068 0.337,-0.091 0.336,-0.118C0.336,-0.141 0.339,-0.162 0.345,-0.182C0.351,-0.201 0.357,-0.221 0.364,-0.24C0.371,-0.26 0.377,-0.28 0.382,-0.301C0.388,-0.322 0.39,-0.346 0.39,-0.372C0.388,-0.396 0.385,-0.416 0.378,-0.431C0.372,-0.446 0.365,-0.458 0.356,-0.466C0.347,-0.474 0.338,-0.48 0.328,-0.482C0.318,-0.484 0.308,-0.485 0.3,-0.483C0.282,-0.48 0.264,-0.47 0.246,-0.454C0.228,-0.437 0.211,-0.416 0.197,-0.391C0.182,-0.366 0.17,-0.338 0.161,-0.306C0.152,-0.274 0.147,-0.241 0.146,-0.208L0.146,-0.21C0.146,-0.194 0.146,-0.179 0.146,-0.167C0.145,-0.155 0.145,-0.144 0.146,-0.136C0.146,-0.117 0.148,-0.102 0.152,-0.091C0.155,-0.081 0.16,-0.072 0.164,-0.066C0.169,-0.061 0.174,-0.056 0.179,-0.054C0.185,-0.052 0.189,-0.05 0.193,-0.05L0.192,-0.032C0.183,-0.034 0.172,-0.035 0.158,-0.036C0.144,-0.036 0.129,-0.035 0.112,-0.033C0.096,-0.031 0.079,-0.028 0.062,-0.022C0.045,-0.017 0.029,-0.01 0.015,-0.001L0.008,-0.015C0.018,-0.022 0.026,-0.029 0.034,-0.036C0.041,-0.042 0.048,-0.05 0.053,-0.06C0.059,-0.069 0.063,-0.082 0.067,-0.098C0.071,-0.113 0.074,-0.134 0.076,-0.159C0.08,-0.211 0.083,-0.261 0.084,-0.311C0.085,-0.361 0.084,-0.407 0.08,-0.45C0.079,-0.464 0.075,-0.474 0.07,-0.481C0.064,-0.489 0.058,-0.494 0.05,-0.497C0.042,-0.5 0.034,-0.501 0.025,-0.501C0.017,-0.501 0.009,-0.501 0.001,-0.5L0,-0.517C0.014,-0.518 0.029,-0.52 0.044,-0.521C0.06,-0.523 0.075,-0.525 0.089,-0.527C0.103,-0.529 0.116,-0.531 0.127,-0.534C0.139,-0.536 0.148,-0.539 0.154,-0.542C0.153,-0.521 0.152,-0.5 0.152,-0.48C0.152,-0.459 0.151,-0.441 0.15,-0.424C0.15,-0.404 0.149,-0.386 0.149,-0.368Z" style="fill:white;fill-rule:nonzero;"/>
                    </g>
                </g>
                <g transform="matrix(-0.0457585,0.691925,-0.534039,-0.0353172,925.422,620.43)">
                    <ellipse cx="566.576" cy="951.153" rx="36.021" ry="48.568" style="fill:none;"/>
                    <clipPath id="_clip1">
                        <ellipse cx="566.576" cy="951.153" rx="36.021" ry="48.568"/>
                    </clipPath>
                    <g clip-path="url(#_clip1)">
                        <g id="Toile-d-araignée" serif:id="Toile d&apos;araignée" transform="matrix(0.598579,1.52458e-17,1.92592e-17,0.775545,414.18,723.065)">
                            <path d="M252.17,230.91L445.4,230.91" style="fill:none;fill-rule:nonzero;stroke:white;stroke-width:3px;"/>
                            <path d="M252.17,230.91L438.82,179.3" style="fill:none;fill-rule:nonzero;stroke:white;stroke-width:3px;"/>
                            <path d="M252.17,230.91L419.51,131.206" style="fill:none;fill-rule:nonzero;stroke:white;stroke-width:3px;"/>
                            <path d="M252.17,230.91L388.8,89.91" style="fill:none;fill-rule:nonzero;stroke:white;stroke-width:3px;"/>
                            <path d="M252.17,230.91L348.785,58.22" style="fill:none;fill-rule:nonzero;stroke:white;stroke-width:3px;"/>
                            <path d="M252.17,230.91L302.182,38.3" style="fill:none;fill-rule:nonzero;stroke:white;stroke-width:3px;"/>
                            <path d="M445.41,230.91C431.462,211.974 432.318,195.22 438.826,179.3C409.983,154.019 421.551,145.419 419.522,131.207C387.615,121.914 393.407,104.839 388.814,89.908C355.142,91.934 354.348,73.602 348.794,58.218C330.579,64.646 309.775,52.756 302.19,38.297C280.61,53.114 263.141,50.965 249.866,31.502" style="fill:none;fill-rule:nonzero;stroke:white;stroke-width:3px;"/>
                            <path d="M249.86,230.91L249.86,31.5" style="fill:none;fill-rule:nonzero;stroke:white;stroke-width:3px;"/>
                            <path d="M422.69,231.05C410.353,214.3 411.11,199.481 416.866,185.399C391.354,163.037 401.586,155.43 399.791,142.859C371.568,134.638 376.691,119.536 372.629,106.329C342.845,108.121 342.143,91.906 337.23,78.298C321.118,83.984 302.716,73.466 296.007,60.677C276.919,73.783 261.467,71.882 249.725,54.667" style="fill:none;fill-rule:nonzero;stroke:white;stroke-width:3px;"/>
                            <path d="M398.97,231.19C388.315,216.725 388.969,203.926 393.94,191.765C371.907,172.453 380.744,165.883 379.194,155.026C354.82,147.927 359.245,134.884 355.736,123.478C330.014,125.026 329.408,111.022 325.165,99.27C311.25,104.18 295.358,95.097 289.564,84.052C273.079,95.371 259.734,93.729 249.594,78.861" style="fill:none;fill-rule:nonzero;stroke:white;stroke-width:3px;"/>
                            <path d="M376.52,231.33C367.457,219.026 368.013,208.139 372.242,197.794C353.5,181.367 361.017,175.779 359.698,166.543C338.965,160.504 342.729,149.409 339.744,139.708C317.864,141.025 317.349,129.113 313.74,119.116C301.904,123.293 288.386,115.567 283.457,106.172C269.435,115.8 258.083,114.404 249.457,101.757" style="fill:none;fill-rule:nonzero;stroke:white;stroke-width:3px;"/>
                            <path d="M340.84,231.46C334.313,222.598 334.713,214.758 337.759,207.308C324.261,195.477 329.674,191.453 328.725,184.802C313.793,180.453 316.503,172.462 314.354,165.475C298.596,166.423 298.224,157.844 295.625,150.645C287.1,153.653 277.364,148.089 273.815,141.323C263.716,148.256 255.54,147.251 249.328,138.143" style="fill:none;fill-rule:nonzero;stroke:white;stroke-width:3px;"/>
                            <path d="M356.44,231.46C348.8,221.088 349.269,211.91 352.834,203.19C337.035,189.342 343.371,184.631 342.26,176.846C324.783,171.755 327.955,162.403 325.438,154.224C306.994,155.334 306.559,145.292 303.518,136.866C293.54,140.387 282.145,133.874 277.989,125.954C266.169,134.07 256.599,132.893 249.328,122.232" style="fill:none;fill-rule:nonzero;stroke:white;stroke-width:3px;"/>
                            <path d="M320.02,231.67C314.963,224.805 315.274,218.731 317.633,212.959C307.176,203.794 311.37,200.676 310.635,195.523C299.067,192.154 301.167,185.964 299.502,180.551C287.294,181.286 287.007,174.64 284.993,169.062C278.389,171.392 270.847,167.082 268.097,161.84C260.273,167.212 253.94,166.432 249.127,159.377" style="fill:none;fill-rule:nonzero;stroke:white;stroke-width:3px;"/>
                            <path d="M304.54,231.76C300.581,226.385 300.824,221.63 302.671,217.111C294.484,209.935 297.768,207.494 297.192,203.46C288.135,200.822 289.779,195.976 288.476,191.738C278.918,192.313 278.693,187.11 277.117,182.743C271.947,184.568 266.042,181.193 263.889,177.089C257.764,181.294 252.805,180.684 249.037,175.16" style="fill:none;fill-rule:nonzero;stroke:white;stroke-width:3px;"/>
                            <path d="M284.08,231.89C281.572,228.485 281.726,225.472 282.896,222.609C277.709,218.063 279.79,216.517 279.425,213.961C273.687,212.29 274.729,209.22 273.903,206.535C267.848,206.899 267.705,203.603 266.707,200.836C263.431,201.992 259.69,199.854 258.326,197.254C254.446,199.919 251.305,199.532 248.917,196.033" style="fill:none;fill-rule:nonzero;stroke:white;stroke-width:3px;"/>
                            <g transform="matrix(-0.77072,0,0,0.79536,918.3,-62.047)">
                                <path d="M868.76,369.37L1119.47,369.37" style="fill:none;fill-rule:nonzero;stroke:white;stroke-width:3px;"/>
                            </g>
                            <g transform="matrix(-0.77072,0,0,0.79536,918.3,-62.047)">
                                <path d="M868.76,369.37L1110.93,304.48" style="fill:none;fill-rule:nonzero;stroke:white;stroke-width:3px;"/>
                            </g>
                            <g transform="matrix(-0.77072,0,0,0.79536,918.3,-62.047)">
                                <path d="M868.76,369.37L1085.88,244.01" style="fill:none;fill-rule:nonzero;stroke:white;stroke-width:3px;"/>
                            </g>
                            <g transform="matrix(-0.77072,0,0,0.79536,918.3,-62.047)">
                                <path d="M868.76,369.37L1046.04,192.09" style="fill:none;fill-rule:nonzero;stroke:white;stroke-width:3px;"/>
                            </g>
                            <g transform="matrix(-0.77072,0,0,0.79536,918.3,-62.047)">
                                <path d="M868.76,369.37L994.12,152.25" style="fill:none;fill-rule:nonzero;stroke:white;stroke-width:3px;"/>
                            </g>
                            <g transform="matrix(-0.77072,0,0,0.79536,918.3,-62.047)">
                                <path d="M868.76,369.37L933.65,127.2" style="fill:none;fill-rule:nonzero;stroke:white;stroke-width:3px;"/>
                            </g>
                            <g transform="matrix(-0.77072,0,0,0.79536,918.3,-62.047)">
                                <path d="M1119.5,369.37C1101.4,345.562 1102.51,324.497 1110.96,304.48C1073.53,272.695 1088.54,261.882 1085.91,244.013C1044.51,232.328 1052.03,210.861 1046.07,192.088C1002.38,194.636 1001.35,171.587 994.143,152.245C970.509,160.327 943.516,145.377 933.675,127.199C905.676,145.828 883.01,143.126 865.785,118.656" style="fill:none;fill-rule:nonzero;stroke:white;stroke-width:3px;"/>
                            </g>
                            <g transform="matrix(-0.77072,0,0,0.79536,918.3,-62.047)">
                                <path d="M865.76,369.37L865.76,118.66" style="fill:none;fill-rule:nonzero;stroke:white;stroke-width:3px;"/>
                            </g>
                            <g transform="matrix(-0.77072,0,0,0.79536,918.3,-62.047)">
                                <path d="M1090,369.55C1073.99,348.491 1074.97,329.858 1082.44,312.153C1049.34,284.037 1062.62,274.473 1060.29,258.667C1023.67,248.331 1030.32,229.343 1025.05,212.738C986.402,214.991 985.492,194.604 979.118,177.495C958.213,184.644 934.337,171.42 925.632,155.34C900.866,171.818 880.816,169.428 865.581,147.784" style="fill:none;fill-rule:nonzero;stroke:white;stroke-width:3px;"/>
                            </g>
                            <g transform="matrix(-0.77072,0,0,0.79536,918.3,-62.047)">
                                <path d="M1059.2,369.73C1045.38,351.543 1046.22,335.452 1052.67,320.16C1024.09,295.879 1035.55,287.619 1033.54,273.969C1001.92,265.043 1007.66,248.644 1003.11,234.304C969.731,236.25 968.944,218.643 963.439,203.868C945.385,210.042 924.765,198.622 917.248,184.735C895.859,198.966 878.544,196.902 865.387,178.209" style="fill:none;fill-rule:nonzero;stroke:white;stroke-width:3px;"/>
                            </g>
                            <g transform="matrix(-0.77072,0,0,0.79536,918.3,-62.047)">
                                <path d="M1030.1,369.9C1018.34,354.43 1019.06,340.742 1024.55,327.735C1000.23,307.081 1009.99,300.055 1008.27,288.444C981.374,280.851 986.256,266.902 982.384,254.704C953.995,256.359 953.326,241.383 948.644,228.814C933.287,234.066 915.747,224.352 909.353,212.539C891.159,224.644 876.431,222.889 865.239,206.988" style="fill:none;fill-rule:nonzero;stroke:white;stroke-width:3px;"/>
                            </g>
                            <g transform="matrix(-0.77072,0,0,0.79536,918.3,-62.047)">
                                <path d="M983.8,370.07C975.331,358.928 975.85,349.071 979.802,339.703C962.288,324.828 969.312,319.768 968.08,311.406C948.706,305.938 952.222,295.892 949.434,287.106C928.988,288.298 928.506,277.512 925.134,268.46C914.074,272.242 901.441,265.246 896.836,256.739C883.732,265.457 873.125,264.193 865.064,252.741" style="fill:none;fill-rule:nonzero;stroke:white;stroke-width:3px;"/>
                            </g>
                            <g transform="matrix(-0.77072,0,0,0.79536,918.3,-62.047)">
                                <path d="M1004,370.07C994.087,357.029 994.695,345.49 999.321,334.526C978.822,317.115 987.044,311.192 985.601,301.404C962.924,295.004 967.041,283.244 963.776,272.962C939.845,274.358 939.281,261.732 935.334,251.137C922.388,255.564 907.602,247.375 902.212,237.417C886.875,247.622 874.459,246.142 865.025,232.738" style="fill:none;fill-rule:nonzero;stroke:white;stroke-width:3px;"/>
                            </g>
                            <g transform="matrix(-0.77072,0,0,0.79536,918.3,-62.047)">
                                <path d="M956.78,370.33C950.219,361.698 950.622,354.062 953.683,346.805C940.116,335.281 945.557,331.361 944.603,324.883C929.593,320.647 932.319,312.864 930.157,306.058C914.318,306.982 913.945,298.626 911.332,291.613C902.764,294.543 892.978,289.123 889.41,282.533C879.259,289.287 871.042,288.307 864.797,279.436" style="fill:none;fill-rule:nonzero;stroke:white;stroke-width:3px;"/>
                            </g>
                            <g transform="matrix(-0.77072,0,0,0.79536,918.3,-62.047)">
                                <path d="M936.7,370.45C931.563,363.692 931.879,357.713 934.275,352.032C923.653,343.01 927.913,339.941 927.166,334.869C915.415,331.552 917.548,325.459 915.857,320.131C903.456,320.854 903.164,314.312 901.119,308.822C894.411,311.116 886.749,306.872 883.956,301.713C876.009,307.001 869.575,306.234 864.686,299.288" style="fill:none;fill-rule:nonzero;stroke:white;stroke-width:3px;"/>
                            </g>
                            <g transform="matrix(-0.77072,0,0,0.79536,918.3,-62.047)">
                                <path d="M910.15,370.6C906.896,366.319 907.095,362.531 908.614,358.932C901.884,353.216 904.583,351.272 904.11,348.059C896.666,345.958 898.017,342.098 896.945,338.722C889.089,339.18 888.904,335.036 887.608,331.557C883.359,333.011 878.505,330.322 876.735,327.054C871.701,330.404 867.625,329.918 864.527,325.517" style="fill:none;fill-rule:nonzero;stroke:white;stroke-width:3px;"/>
                            </g>
                            <g transform="matrix(-0.77072,0,0,-0.79536,918.3,1838)">
                                <path d="M868.76,2019.7L1119.47,2019.7" style="fill:none;fill-rule:nonzero;stroke:white;stroke-width:3px;"/>
                            </g>
                            <g transform="matrix(-0.77072,0,0,-0.79536,918.3,1838)">
                                <path d="M868.76,2019.7L1110.93,1954.81" style="fill:none;fill-rule:nonzero;stroke:white;stroke-width:3px;"/>
                            </g>
                            <g transform="matrix(-0.77072,0,0,-0.79536,918.3,1838)">
                                <path d="M868.76,2019.7L1085.88,1894.34" style="fill:none;fill-rule:nonzero;stroke:white;stroke-width:3px;"/>
                            </g>
                            <g transform="matrix(-0.77072,0,0,-0.79536,918.3,1838)">
                                <path d="M868.76,2019.7L1046.04,1842.42" style="fill:none;fill-rule:nonzero;stroke:white;stroke-width:3px;"/>
                            </g>
                            <g transform="matrix(-0.77072,0,0,-0.79536,918.3,1838)">
                                <path d="M868.76,2019.7L994.12,1802.58" style="fill:none;fill-rule:nonzero;stroke:white;stroke-width:3px;"/>
                            </g>
                            <g transform="matrix(-0.77072,0,0,-0.79536,918.3,1838)">
                                <path d="M868.76,2019.7L933.65,1777.53" style="fill:none;fill-rule:nonzero;stroke:white;stroke-width:3px;"/>
                            </g>
                            <g transform="matrix(-0.77072,0,0,-0.79536,918.3,1838)">
                                <path d="M1119.5,2019.7C1101.4,1995.89 1102.51,1974.83 1110.96,1954.81C1073.53,1923.03 1088.54,1912.21 1085.91,1894.34C1044.51,1882.66 1052.03,1861.19 1046.07,1842.42C1002.38,1844.97 1001.35,1821.92 994.143,1802.58C970.509,1810.66 943.516,1795.71 933.675,1777.53C905.676,1796.16 883.01,1793.46 865.785,1768.99" style="fill:none;fill-rule:nonzero;stroke:white;stroke-width:3px;"/>
                            </g>
                            <g transform="matrix(-0.77072,0,0,-0.79536,918.3,1838)">
                                <path d="M865.76,2019.7L865.76,1768.99" style="fill:none;fill-rule:nonzero;stroke:white;stroke-width:3px;"/>
                            </g>
                            <g transform="matrix(-0.77072,0,0,-0.79536,918.3,1838)">
                                <path d="M1090,2019.9C1073.99,1998.84 1074.97,1980.21 1082.44,1962.5C1049.34,1934.39 1062.62,1924.82 1060.29,1909.02C1023.67,1898.68 1030.32,1879.69 1025.05,1863.09C986.402,1865.34 985.492,1844.95 979.118,1827.85C958.213,1834.99 934.337,1821.77 925.632,1805.69C900.866,1822.17 880.816,1819.78 865.581,1798.13" style="fill:none;fill-rule:nonzero;stroke:white;stroke-width:3px;"/>
                            </g>
                            <g transform="matrix(-0.77072,0,0,-0.79536,918.3,1838)">
                                <path d="M1059.2,2020.1C1045.38,2001.91 1046.22,1985.82 1052.67,1970.53C1024.09,1946.25 1035.55,1937.99 1033.54,1924.34C1001.92,1915.41 1007.66,1899.01 1003.11,1884.67C969.731,1886.62 968.944,1869.01 963.439,1854.24C945.385,1860.41 924.765,1848.99 917.248,1835.11C895.859,1849.34 878.544,1847.27 865.387,1828.58" style="fill:none;fill-rule:nonzero;stroke:white;stroke-width:3px;"/>
                            </g>
                            <g transform="matrix(-0.77072,0,0,-0.79536,918.3,1838)">
                                <path d="M1030.1,2020.3C1018.34,2004.83 1019.06,1991.14 1024.55,1978.13C1000.23,1957.48 1009.99,1950.45 1008.27,1938.84C981.374,1931.25 986.256,1917.3 982.384,1905.1C953.995,1906.76 953.326,1891.78 948.644,1879.21C933.287,1884.47 915.747,1874.75 909.353,1862.94C891.159,1875.04 876.431,1873.29 865.239,1857.39" style="fill:none;fill-rule:nonzero;stroke:white;stroke-width:3px;"/>
                            </g>
                            <g transform="matrix(-0.77072,0,0,-0.79536,918.3,1838)">
                                <path d="M983.8,2020.4C975.331,2009.26 975.85,1999.4 979.802,1990.03C962.288,1975.16 969.312,1970.1 968.08,1961.74C948.706,1956.27 952.222,1946.22 949.434,1937.44C928.988,1938.63 928.506,1927.84 925.134,1918.79C914.074,1922.57 901.441,1915.58 896.836,1907.07C883.732,1915.79 873.125,1914.52 865.064,1903.07" style="fill:none;fill-rule:nonzero;stroke:white;stroke-width:3px;"/>
                            </g>
                            <g transform="matrix(-0.77072,0,0,-0.79536,918.3,1838)">
                                <path d="M1004,2020.4C994.087,2007.36 994.695,1995.82 999.321,1984.86C978.822,1967.44 987.044,1961.52 985.601,1951.73C962.924,1945.33 967.041,1933.57 963.776,1923.29C939.845,1924.69 939.281,1912.06 935.334,1901.47C922.388,1905.89 907.602,1897.7 902.212,1887.75C886.875,1897.95 874.459,1896.47 865.025,1883.07" style="fill:none;fill-rule:nonzero;stroke:white;stroke-width:3px;"/>
                            </g>
                            <g transform="matrix(-0.77072,0,0,-0.79536,918.3,1838)">
                                <path d="M956.78,2020.7C950.219,2012.07 950.622,2004.43 953.683,1997.17C940.116,1985.65 945.557,1981.73 944.603,1975.25C929.593,1971.02 932.319,1963.23 930.157,1956.43C914.318,1957.35 913.945,1949 911.332,1941.98C902.764,1944.91 892.978,1939.49 889.41,1932.9C879.259,1939.66 871.042,1938.68 864.797,1929.81" style="fill:none;fill-rule:nonzero;stroke:white;stroke-width:3px;"/>
                            </g>
                            <g transform="matrix(-0.77072,0,0,-0.79536,918.3,1838)">
                                <path d="M936.7,2020.8C931.563,2014.04 931.879,2008.06 934.275,2002.38C923.653,1993.36 927.913,1990.29 927.166,1985.22C915.415,1981.9 917.548,1975.81 915.857,1970.48C903.456,1971.2 903.164,1964.66 901.119,1959.17C894.411,1961.47 886.749,1957.22 883.956,1952.06C876.009,1957.35 869.575,1956.58 864.686,1949.64" style="fill:none;fill-rule:nonzero;stroke:white;stroke-width:3px;"/>
                            </g>
                            <g transform="matrix(-0.77072,0,0,-0.79536,918.3,1838)">
                                <path d="M910.15,2021C906.896,2016.72 907.095,2012.93 908.614,2009.33C901.884,2003.62 904.583,2001.67 904.11,1998.46C896.666,1996.36 898.017,1992.5 896.945,1989.12C889.089,1989.58 888.904,1985.44 887.608,1981.96C883.359,1983.41 878.505,1980.72 876.735,1977.45C871.701,1980.8 867.625,1980.32 864.527,1975.92" style="fill:none;fill-rule:nonzero;stroke:white;stroke-width:3px;"/>
                            </g>
                            <g transform="matrix(0.77072,0,0,-0.79536,707.49,1838.8)">
                                <path d="M-590.73,2019.7L-340.02,2019.7" style="fill:none;fill-rule:nonzero;stroke:white;stroke-width:3px;"/>
                            </g>
                            <g transform="matrix(0.77072,0,0,-0.79536,707.49,1838.8)">
                                <path d="M-590.73,2019.7L-348.56,1954.81" style="fill:none;fill-rule:nonzero;stroke:white;stroke-width:3px;"/>
                            </g>
                            <g transform="matrix(0.77072,0,0,-0.79536,707.49,1838.8)">
                                <path d="M-590.73,2019.7L-373.61,1894.34" style="fill:none;fill-rule:nonzero;stroke:white;stroke-width:3px;"/>
                            </g>
                            <g transform="matrix(0.77072,0,0,-0.79536,707.49,1838.8)">
                                <path d="M-590.73,2019.7L-413.45,1842.42" style="fill:none;fill-rule:nonzero;stroke:white;stroke-width:3px;"/>
                            </g>
                            <g transform="matrix(0.77072,0,0,-0.79536,707.49,1838.8)">
                                <path d="M-590.73,2019.7L-465.37,1802.58" style="fill:none;fill-rule:nonzero;stroke:white;stroke-width:3px;"/>
                            </g>
                            <g transform="matrix(0.77072,0,0,-0.79536,707.49,1838.8)">
                                <path d="M-590.73,2019.7L-525.84,1777.53" style="fill:none;fill-rule:nonzero;stroke:white;stroke-width:3px;"/>
                            </g>
                            <g transform="matrix(0.77072,0,0,-0.79536,707.49,1838.8)">
                                <path d="M-340.02,2019.7C-358.117,1995.89 -357.007,1974.83 -348.563,1954.81C-385.986,1923.03 -370.977,1912.21 -373.609,1894.34C-415.008,1882.66 -407.493,1861.19 -413.452,1842.42C-457.141,1844.97 -458.171,1821.92 -465.377,1802.58C-489.011,1810.66 -516.004,1795.71 -525.845,1777.53C-553.844,1796.16 -576.51,1793.46 -593.735,1768.99" style="fill:none;fill-rule:nonzero;stroke:white;stroke-width:3px;"/>
                            </g>
                            <g transform="matrix(0.77072,0,0,-0.79536,707.49,1838.8)">
                                <path d="M-593.73,2019.7L-593.73,1768.99" style="fill:none;fill-rule:nonzero;stroke:white;stroke-width:3px;"/>
                            </g>
                            <g transform="matrix(0.77072,0,0,-0.79536,707.49,1838.8)">
                                <path d="M-369.49,2019.9C-385.497,1998.84 -384.515,1980.21 -377.047,1962.5C-410.149,1934.39 -396.873,1924.82 -399.201,1909.02C-435.82,1898.68 -429.173,1879.69 -434.444,1863.09C-473.089,1865.34 -473.999,1844.95 -480.373,1827.85C-501.278,1834.99 -525.154,1821.77 -533.859,1805.69C-558.625,1822.17 -578.674,1819.78 -593.91,1798.13" style="fill:none;fill-rule:nonzero;stroke:white;stroke-width:3px;"/>
                            </g>
                            <g transform="matrix(0.77072,0,0,-0.79536,707.49,1838.8)">
                                <path d="M-400.28,2020.1C-414.104,2001.91 -413.256,1985.82 -406.806,1970.53C-435.394,1946.25 -423.928,1937.99 -425.939,1924.34C-457.564,1915.41 -451.823,1899.01 -456.375,1884.67C-489.749,1886.62 -490.536,1869.01 -496.041,1854.24C-514.095,1860.41 -534.715,1848.99 -542.232,1835.11C-563.621,1849.34 -580.936,1847.27 -594.093,1828.58" style="fill:none;fill-rule:nonzero;stroke:white;stroke-width:3px;"/>
                            </g>
                            <g transform="matrix(0.77072,0,0,-0.79536,707.49,1838.8)">
                                <path d="M-429.4,2020.3C-441.159,2004.83 -440.438,1991.14 -434.951,1978.13C-459.268,1957.48 -449.515,1950.45 -451.226,1938.84C-478.126,1931.25 -473.244,1917.3 -477.116,1905.1C-505.505,1906.76 -506.174,1891.78 -510.856,1879.21C-526.213,1884.47 -543.753,1874.75 -550.147,1862.94C-568.341,1875.04 -583.069,1873.29 -594.261,1857.39" style="fill:none;fill-rule:nonzero;stroke:white;stroke-width:3px;"/>
                            </g>
                            <g transform="matrix(0.77072,0,0,-0.79536,707.49,1838.8)">
                                <path d="M-475.69,2020.4C-484.159,2009.26 -483.64,1999.4 -479.688,1990.03C-497.202,1975.16 -490.178,1970.1 -491.41,1961.74C-510.784,1956.27 -507.268,1946.22 -510.056,1937.44C-530.502,1938.63 -530.984,1927.84 -534.356,1918.79C-545.416,1922.57 -558.049,1915.58 -562.654,1907.07C-575.757,1915.79 -586.365,1914.52 -594.426,1903.07" style="fill:none;fill-rule:nonzero;stroke:white;stroke-width:3px;"/>
                            </g>
                            <g transform="matrix(0.77072,0,0,-0.79536,707.49,1838.8)">
                                <path d="M-455.46,2020.4C-465.373,2007.36 -464.765,1995.82 -460.139,1984.86C-480.638,1967.44 -472.416,1961.52 -473.859,1951.73C-496.536,1945.33 -492.419,1933.57 -495.684,1923.29C-519.615,1924.69 -520.179,1912.06 -524.126,1901.47C-537.072,1905.89 -551.858,1897.7 -557.248,1887.75C-572.585,1897.95 -585.001,1896.47 -594.435,1883.07" style="fill:none;fill-rule:nonzero;stroke:white;stroke-width:3px;"/>
                            </g>
                            <g transform="matrix(0.77072,0,0,-0.79536,707.49,1838.8)">
                                <path d="M-502.71,2020.7C-509.271,2012.07 -508.868,2004.43 -505.807,1997.17C-519.374,1985.65 -513.933,1981.73 -514.888,1975.25C-529.897,1971.02 -527.172,1963.23 -529.333,1956.43C-545.172,1957.35 -545.545,1949 -548.158,1941.98C-556.726,1944.91 -566.512,1939.49 -570.08,1932.9C-580.231,1939.66 -588.448,1938.68 -594.693,1929.81" style="fill:none;fill-rule:nonzero;stroke:white;stroke-width:3px;"/>
                            </g>
                            <g transform="matrix(0.77072,0,0,-0.79536,707.49,1838.8)">
                                <path d="M-522.79,2020.8C-527.927,2014.04 -527.612,2008.06 -525.215,2002.38C-535.837,1993.36 -531.577,1990.29 -532.324,1985.22C-544.075,1981.9 -541.942,1975.81 -543.633,1970.48C-556.034,1971.2 -556.326,1964.66 -558.371,1959.17C-565.079,1961.47 -572.741,1957.22 -575.534,1952.06C-583.481,1957.35 -589.915,1956.58 -594.804,1949.64" style="fill:none;fill-rule:nonzero;stroke:white;stroke-width:3px;"/>
                            </g>
                            <g transform="matrix(0.77072,0,0,-0.79536,707.49,1838.8)">
                                <path d="M-549.34,2021C-552.594,2016.72 -552.395,2012.93 -550.876,2009.33C-557.606,2003.62 -554.907,2001.67 -555.38,1998.46C-562.824,1996.36 -561.473,1992.5 -562.545,1989.12C-570.401,1989.58 -570.586,1985.44 -571.882,1981.96C-576.131,1983.41 -580.985,1980.72 -582.755,1977.45C-587.789,1980.8 -591.865,1980.32 -594.963,1975.92" style="fill:none;fill-rule:nonzero;stroke:white;stroke-width:3px;"/>
                            </g>
                        </g>
                    </g>
                </g>
            </g>
            <g transform="matrix(0.750031,0,0,1.05772,-213.455,-464.649)">
                <path d="M974.95,1155.07C974.98,1203.52 975.14,1251.97 974.87,1300.42C973.62,1295.38 971.51,1290.66 969.34,1285.98C966.52,1286.07 965.65,1289.11 963.58,1290.48C961.73,1291.94 959.27,1291.92 957.07,1292.37C957.06,1293.04 957.04,1294.38 957.03,1295.05C961.06,1295.61 964.36,1293.27 967.83,1291.7C969.27,1297.85 972.17,1303.73 971.97,1310.18C971.34,1310.11 970.07,1309.96 969.44,1309.89C968.38,1306.7 967.13,1303.53 964.86,1301.01C944.564,1304.57 950.172,1302.73 945,1306.98C942.52,1309.32 938.4,1309.34 936.57,1312.45C933.75,1317.08 931.93,1322.32 928.66,1326.69C925.84,1329.47 920.52,1329.91 919.68,1334.38C924.895,1334.25 931.651,1327.39 935.76,1319.79C935.87,1320.59 936.09,1322.18 936.2,1322.98C937.15,1322.27 938.08,1321.51 939,1320.76C938.35,1319.68 937.57,1318.69 936.91,1317.66C938.8,1316.08 940.71,1314.53 942.58,1312.93C942.82,1313.77 943.3,1315.46 943.55,1316.3C946.64,1314.46 947.31,1309.83 951.13,1309.14C954.78,1308.13 958.52,1307.42 962.03,1305.95C962.84,1307.53 963.91,1309.08 964.16,1310.91C961.39,1316.6 945.533,1320.59 952.13,1340.95C954.43,1340.57 956.73,1340.17 959.06,1339.9C954.01,1348.72 951.99,1358.92 950.91,1368.93C950.43,1374.44 943.42,1376.98 943.99,1382.87C944.65,1382.82 945.98,1382.72 946.64,1382.67C958.224,1361.95 951.906,1369.01 955.72,1359.71C966.423,1332.99 963.952,1338.44 972.51,1335.33C976.13,1334.32 978.12,1330.11 982.16,1330.13C988.37,1329.96 994.56,1327.89 1000.76,1328.92C1006.57,1332.39 1008.32,1339.54 1010.62,1345.46C1011.24,1345.65 1012.47,1346.03 1013.09,1346.22C1011.13,1338.12 1007.58,1330.44 1001.93,1324.26C1022.8,1318.61 1038.41,1335.84 1041.14,1337.3C1039.51,1330.05 1024.42,1316.97 996.86,1319.42C999.865,1313.73 1001.94,1299.45 1028.1,1303.96C1027.82,1302.81 1027.56,1301.69 1027.33,1300.57C1022.59,1299.13 1017.81,1301.2 1013.02,1300.98C1007.35,1301.05 1001.12,1299.46 992.88,1315.69C991.85,1311.84 989.56,1308.53 985.98,1306.69C989.38,1300.34 991.27,1292.81 997.29,1288.29C999.74,1286.46 1003.92,1285.77 1004.11,1282.1C990.555,1281.93 985.814,1301.61 980.35,1306.31C980.612,1143.66 977.082,1157.83 986.54,1146.5L974.95,1155.07Z" style="fill:white;fill-rule:nonzero;"/>
            </g>
            <g transform="matrix(2.18651,0,0,2.76739,-557.356,-3813.63)">
                <g transform="matrix(50,0,0,50,359.084,1651.35)">
                    <path d="M0.028,0.061L0.206,0.061C0.354,0.061 0.44,-0.047 0.44,-0.216C0.44,-0.37 0.363,-0.445 0.292,-0.514C0.232,-0.572 0.177,-0.626 0.177,-0.719C0.177,-0.766 0.193,-0.796 0.243,-0.796C0.285,-0.796 0.312,-0.771 0.312,-0.735C0.312,-0.701 0.288,-0.683 0.264,-0.683C0.256,-0.683 0.248,-0.685 0.242,-0.689C0.241,-0.684 0.241,-0.68 0.241,-0.675C0.241,-0.63 0.274,-0.607 0.312,-0.607C0.363,-0.607 0.422,-0.649 0.422,-0.735C0.422,-0.829 0.351,-0.903 0.243,-0.903C0.139,-0.903 0.058,-0.836 0.058,-0.714C0.058,-0.576 0.126,-0.512 0.193,-0.449C0.257,-0.388 0.321,-0.328 0.321,-0.203C0.321,-0.103 0.282,-0.036 0.175,-0.036C0.241,-0.132 0.208,-0.342 0.112,-0.407L0.014,-0.314C0.102,-0.271 0.116,-0.039 0.011,0.024L0.028,0.061Z" style="fill:white;fill-rule:nonzero;"/>
                </g>
                <g transform="matrix(50,0,0,50,382.034,1651.35)">
                    <path d="M0.007,-0L0.148,-0C0.14,-0.042 0.14,-0.084 0.144,-0.126L0.241,-0.126C0.245,-0.084 0.245,-0.042 0.238,-0L0.377,-0C0.361,-0.068 0.349,-0.135 0.34,-0.203L0.268,-0.7L0.107,-0.7C0.111,-0.654 0.105,-0.609 0.098,-0.563L0.046,-0.203C0.036,-0.135 0.025,-0.068 0.007,-0ZM0.154,-0.221L0.191,-0.533L0.194,-0.533L0.231,-0.221L0.154,-0.221Z" style="fill:white;fill-rule:nonzero;"/>
                </g>
                <g transform="matrix(50,0,0,50,401.234,1651.35)">
                    <path d="M0.214,0.015L0.216,0.015C0.275,0.015 0.331,-0.009 0.36,-0.056C0.369,-0.069 0.376,-0.082 0.382,-0.093C0.39,-0.108 0.397,-0.121 0.405,-0.129C0.393,-0.168 0.382,-0.264 0.38,-0.417C0.382,-0.57 0.393,-0.661 0.405,-0.7L0.245,-0.7C0.258,-0.658 0.27,-0.557 0.27,-0.384L0.27,-0.152C0.27,-0.107 0.251,-0.092 0.215,-0.092C0.179,-0.092 0.16,-0.107 0.16,-0.152L0.16,-0.384C0.16,-0.557 0.172,-0.658 0.185,-0.7L0.025,-0.7C0.037,-0.661 0.048,-0.57 0.05,-0.417C0.048,-0.264 0.037,-0.168 0.025,-0.129C0.033,-0.121 0.04,-0.108 0.048,-0.093C0.054,-0.082 0.061,-0.069 0.07,-0.056C0.099,-0.009 0.155,0.015 0.214,0.015Z" style="fill:white;fill-rule:nonzero;"/>
                </g>
                <g transform="matrix(50,0,0,50,422.734,1651.35)">
                    <path d="M0.103,-0L0.253,-0L0.325,-0.497C0.335,-0.565 0.346,-0.632 0.364,-0.7L0.233,-0.7C0.236,-0.632 0.227,-0.565 0.219,-0.497L0.18,-0.167L0.177,-0.167L0.138,-0.497C0.13,-0.565 0.121,-0.632 0.123,-0.7L-0.006,-0.7C0.01,-0.632 0.022,-0.565 0.031,-0.497L0.103,-0Z" style="fill:white;fill-rule:nonzero;"/>
                </g>
                <g transform="matrix(50,0,0,50,440.334,1651.35)">
                    <path d="M0.203,0.015C0.288,0.015 0.368,-0.034 0.368,-0.13L0.368,-0.565C0.368,-0.661 0.288,-0.71 0.203,-0.71C0.118,-0.71 0.038,-0.661 0.038,-0.565L0.038,-0.13C0.038,-0.034 0.118,0.015 0.203,0.015ZM0.203,-0.092C0.167,-0.092 0.148,-0.107 0.148,-0.152L0.148,-0.543C0.148,-0.588 0.167,-0.603 0.203,-0.603C0.239,-0.603 0.258,-0.588 0.258,-0.543L0.258,-0.152C0.258,-0.107 0.239,-0.092 0.203,-0.092Z" style="fill:white;fill-rule:nonzero;"/>
                </g>
                <g transform="matrix(50,0,0,50,460.234,1651.35)">
                    <path d="M0.03,-0L0.18,-0C0.167,-0.042 0.155,-0.143 0.155,-0.316L0.155,-0.399L0.294,-0L0.373,-0L0.373,-0.384C0.373,-0.557 0.385,-0.658 0.398,-0.7L0.248,-0.7C0.261,-0.658 0.273,-0.557 0.273,-0.384L0.273,-0.327L0.147,-0.7L0.03,-0.7C0.043,-0.658 0.055,-0.557 0.055,-0.384L0.055,-0.316C0.055,-0.143 0.043,-0.042 0.03,-0Z" style="fill:white;fill-rule:nonzero;"/>
                </g>
                <g transform="matrix(50,0,0,50,481.634,1651.35)">
                    <path d="M0.18,0.015C0.265,0.015 0.35,-0.034 0.35,-0.18L0.35,-0.196C0.35,-0.31 0.28,-0.361 0.22,-0.404C0.174,-0.438 0.133,-0.467 0.133,-0.518L0.133,-0.543C0.133,-0.578 0.15,-0.603 0.188,-0.603C0.225,-0.603 0.241,-0.581 0.241,-0.555C0.241,-0.526 0.219,-0.51 0.199,-0.51C0.196,-0.51 0.193,-0.51 0.19,-0.511C0.2,-0.481 0.226,-0.466 0.253,-0.466C0.296,-0.466 0.343,-0.501 0.343,-0.562C0.343,-0.668 0.271,-0.71 0.188,-0.71C0.101,-0.71 0.023,-0.661 0.023,-0.545L0.023,-0.518C0.023,-0.413 0.089,-0.363 0.149,-0.319C0.197,-0.284 0.24,-0.251 0.24,-0.196L0.24,-0.182C0.24,-0.107 0.216,-0.092 0.18,-0.092C0.144,-0.092 0.129,-0.117 0.129,-0.143C0.129,-0.169 0.129,-0.191 0.144,-0.208L0.015,-0.208C0.02,-0.19 0.02,-0.148 0.02,-0.13C0.02,-0.034 0.105,0.015 0.18,0.015Z" style="fill:white;fill-rule:nonzero;"/>
                </g>
            </g>
            <g transform="matrix(0.609176,0,0,0.771014,6.45937,-913.196)">
                <path d="M1140.52,1661.69C1144.49,1660.4 1148.63,1659.46 1152.95,1658.91C1247.95,1646.83 1236.99,1525.6 1233.58,1489.58C1232.93,1482.79 1227.24,1443.58 1201.91,1423.65C1196.29,1419.23 1177.32,1388.45 1136.68,1413.47C1129.1,1418.14 1112.3,1434.64 1108.48,1453.68C1107.36,1459.24 1122.31,1489.43 1144.01,1493.57C1165.51,1497.67 1176.69,1489.02 1173.62,1486.72C1164.9,1480.19 1212.67,1489.03 1193.18,1497.85C1173.16,1506.9 1163.62,1513.01 1136.68,1511.49C1097.42,1509.27 1080.51,1470.46 1080.18,1469.27C1066.52,1419.84 1104.74,1391.53 1105.81,1390.46C1133.7,1362.65 1187.94,1369.53 1211.33,1374.95C1255.82,1385.26 1288.84,1479.13 1291.79,1482.47C1309.01,1502.05 1331.04,1654.02 1357.96,1658.46C1378.3,1661.82 1397.27,1666.58 1412.45,1673.86C1424.96,1687.38 1439.03,1705.9 1452.22,1727.36C1475.41,1765.12 1490.45,1803.16 1492.49,1823.18C1505.89,1811.58 1493.28,1763.93 1464.35,1716.85C1460.29,1710.24 1456.12,1703.99 1451.92,1698.16C1499.05,1693.06 1576.61,1827.85 1602.73,1914.34C1642.85,2047.16 1524.91,2193.92 1442.47,2208.16C1467.54,2165.33 1478.06,2124.17 1465.9,2113.25C1463.5,2133.22 1447.76,2170.98 1423.87,2208.3C1423.74,2208.52 1423.6,2208.74 1423.46,2208.96C1421.82,2208.78 1420.2,2208.54 1418.61,2208.23C1395.09,2214.26 1370.2,2218.02 1344.39,2219.31C1340.14,2219.52 1306.92,2219.16 1275.45,2218.87C1273.7,2186.37 1269.3,2162.89 1269.3,2162.89C1269.3,2162.89 1264.9,2186.32 1263.15,2218.76C1246.94,2218.63 1232.36,2218.54 1224.06,2218.6C1194.84,2218.8 1166.74,2216.38 1140.31,2211.44C1135.93,2205.39 1131.56,2198.98 1127.27,2192.28C1103.38,2154.95 1087.64,2117.2 1085.24,2097.22C1072.06,2109.07 1085.54,2156.47 1115.33,2203.01C1116.8,2205.3 1118.28,2207.55 1119.77,2209.76C1040.04,2227.7 909.782,2079.46 942.889,1932.65C962.682,1844.89 1044.91,1693.14 1088.19,1698.87C1084.16,1704.5 1080.17,1710.51 1076.27,1716.85C1047.35,1763.93 1034.74,1811.58 1048.13,1823.18C1050.17,1803.16 1065.21,1765.12 1088.4,1727.36C1106.16,1698.47 1125.5,1674.92 1140.52,1661.69ZM1275,2032.88C1308.73,2032.88 1336.12,2055.56 1336.12,2083.5C1336.12,2111.44 1308.73,2134.12 1275,2134.12C1241.27,2134.12 1213.88,2111.44 1213.88,2083.5C1213.88,2055.56 1241.27,2032.88 1275,2032.88ZM1177.35,1819.9C1190.57,1874.19 1193.77,1918.71 1188.77,1954.61C1147.48,1935.27 1105.11,1925.18 1061.44,1926.15C1074.52,1845.58 1114.82,1813.12 1177.35,1819.9ZM1372.65,1819.9C1351.63,1863.86 1347.35,1908.74 1361.23,1954.61C1396.75,1931.09 1438.95,1921.12 1488.56,1926.15C1475.48,1845.58 1435.18,1813.12 1372.65,1819.9ZM1268.15,1701.45C1268.15,1701.45 1275,1737.95 1275,1782.91C1275,1827.87 1268.15,1864.38 1268.15,1864.38C1268.15,1864.38 1261.3,1827.87 1261.3,1782.91C1261.3,1737.95 1268.15,1701.45 1268.15,1701.45Z" style="fill:white;"/>
            </g>
        </g>
    </g>
</svg>
